<?xml version="1.0" encoding="utf-8"?>
<!-- Generator: Adobe Illustrator 18.0.0, SVG Export Plug-In . SVG Version: 6.00 Build 0)  -->
<!DOCTYPE svg PUBLIC "-//W3C//DTD SVG 1.1//EN" "http://www.w3.org/Graphics/SVG/1.1/DTD/svg11.dtd">
<svg version="1.1" id="Layer_1" xmlns="http://www.w3.org/2000/svg" xmlns:xlink="http://www.w3.org/1999/xlink" x="0px" y="0px"
	 viewBox="0 0 75.4 79.2" enable-background="new 0 0 75.4 79.2" xml:space="preserve">
<g>
	<path d="M36.8,44.7L0.9,24c-1.2-0.7-1.2-2.4,0-3.1L36.8,0.2c0.6-0.3,1.2-0.3,1.8,0L74.5,21c1.2,0.7,1.2,2.4,0,3.1L38.6,44.7
		C38,45,37.4,45,36.8,44.7z"/>
	<g>
		<path d="M36.8,53.3L6.6,35.8c-0.6-0.3-1.2-0.3-1.8,0L0.9,38c-1.2,0.7-1.2,2.4,0,3.1l35.9,20.7c0.6,0.3,1.2,0.3,1.8,0l35.9-20.6
			c1.2-0.7,1.2-2.4,0-3.1l-3.9-2.2c-0.6-0.3-1.2-0.3-1.8,0L38.6,53.3C38,53.6,37.4,53.6,36.8,53.3z"/>
	</g>
	<g>
		<path d="M36.8,70.4L6.6,52.9c-0.6-0.3-1.2-0.3-1.8,0l-3.9,2.2c-1.2,0.7-1.2,2.4,0,3.1L36.8,79c0.6,0.3,1.2,0.3,1.8,0l35.9-20.6
			c1.2-0.7,1.2-2.4,0-3.1L70.6,53c-0.6-0.3-1.2-0.3-1.8,0L38.6,70.4C38,70.7,37.4,70.7,36.8,70.4z"/>
	</g>
</g>
</svg>
