<?xml version="1.0" encoding="utf-8"?>
<!-- Generator: Adobe Illustrator 18.0.0, SVG Export Plug-In . SVG Version: 6.00 Build 0)  -->
<!DOCTYPE svg PUBLIC "-//W3C//DTD SVG 1.1//EN" "http://www.w3.org/Graphics/SVG/1.1/DTD/svg11.dtd">
<svg version="1.1" id="Layer_1" xmlns="http://www.w3.org/2000/svg" xmlns:xlink="http://www.w3.org/1999/xlink" x="0px" y="0px"
	 viewBox="0 0 51.3 65.7" enable-background="new 0 0 51.3 65.7" xml:space="preserve">
<g>
	<path d="M0,2.2v61.4c0,1.2,1,2.2,2.2,2.2h47c1.2,0,2.2-1,2.2-2.2V2.2c0-1.2-1-2.2-2.2-2.2h-47C1,0,0,1,0,2.2z M41.1,57.7h-31
		c-1.2,0-2.2-1-2.2-2.2V10.2C8,9,9,8,10.2,8h31c1.2,0,2.2,1,2.2,2.2v45.4C43.3,56.8,42.4,57.7,41.1,57.7z"/>
	<path d="M36.1,15H15.2c-0.4,0-0.8,0.4-0.8,0.8v2.4c0,0.4,0.4,0.8,0.8,0.8h20.9c0.4,0,0.8-0.4,0.8-0.8v-2.4
		C36.9,15.4,36.6,15,36.1,15z"/>
	<path d="M36.1,24.2H15.2c-0.4,0-0.8,0.4-0.8,0.8v2.4c0,0.4,0.4,0.8,0.8,0.8h20.9c0.4,0,0.8-0.4,0.8-0.8V25
		C36.9,24.5,36.6,24.2,36.1,24.2z"/>
	<path d="M36.1,33.3H15.2c-0.4,0-0.8,0.4-0.8,0.8v2.4c0,0.4,0.4,0.8,0.8,0.8h20.9c0.4,0,0.8-0.4,0.8-0.8v-2.4
		C36.9,33.7,36.6,33.3,36.1,33.3z"/>
	<path d="M24.3,42.5h-9.1c-0.4,0-0.8,0.4-0.8,0.8v2.4c0,0.4,0.4,0.8,0.8,0.8h9.1c0.4,0,0.8-0.4,0.8-0.8v-2.4
		C25.1,42.9,24.8,42.5,24.3,42.5z"/>
</g>
</svg>
