<?xml version="1.0" encoding="utf-8"?>
<!-- Generator: Adobe Illustrator 18.0.0, SVG Export Plug-In . SVG Version: 6.00 Build 0)  -->
<!DOCTYPE svg PUBLIC "-//W3C//DTD SVG 1.1//EN" "http://www.w3.org/Graphics/SVG/1.1/DTD/svg11.dtd">
<svg version="1.1" id="Layer_1" xmlns="http://www.w3.org/2000/svg" xmlns:xlink="http://www.w3.org/1999/xlink" x="0px" y="0px"
	 viewBox="0 0 39 39" enable-background="new 0 0 39 39" xml:space="preserve">
<g>
	<path d="M39,22.5v-6.1l-6.9-0.7c-0.3-0.9-0.6-1.7-1-2.5l4.3-5.4l-4.3-4.3l-5.4,4.3c-0.8-0.4-1.6-0.8-2.5-1L22.5,0h-6.1l-0.7,6.9
		c-0.9,0.3-1.7,0.6-2.5,1L7.9,3.6L3.6,7.9l4.3,5.4c-0.4,0.8-0.8,1.6-1,2.5L0,16.4v6.1l6.9,0.7c0.3,0.9,0.6,1.7,1,2.5l-4.3,5.4
		l4.3,4.3l5.4-4.3c0.8,0.4,1.6,0.8,2.5,1l0.7,6.9h6.1l0.7-6.9c0.9-0.3,1.7-0.6,2.5-1l5.4,4.3l4.3-4.3l-4.3-5.4
		c0.4-0.8,0.8-1.6,1-2.5L39,22.5z M20.7,23.8c-3.4,0.9-6.4-2.1-5.5-5.5c0.4-1.5,1.6-2.7,3.1-3.1c3.4-0.9,6.4,2.1,5.5,5.5
		C23.4,22.2,22.2,23.4,20.7,23.8z"/>
</g>
</svg>
