<?xml version="1.0" encoding="utf-8"?>
<!-- Generator: Adobe Illustrator 18.0.0, SVG Export Plug-In . SVG Version: 6.00 Build 0)  -->
<!DOCTYPE svg PUBLIC "-//W3C//DTD SVG 1.1//EN" "http://www.w3.org/Graphics/SVG/1.1/DTD/svg11.dtd">
<svg version="1.1" id="Layer_1" xmlns="http://www.w3.org/2000/svg" xmlns:xlink="http://www.w3.org/1999/xlink" x="0px" y="0px"
	 viewBox="0 0 102.6 102.6" enable-background="new 0 0 102.6 102.6" xml:space="preserve">
<g>
	<path d="M51.3,0C23,0,0,23,0,51.3c0,28.3,23,51.3,51.3,51.3s51.3-23,51.3-51.3C102.6,23,79.6,0,51.3,0z M51.3,91.5
		c-22.2,0-40.2-18-40.2-40.2c0-22.2,18-40.2,40.2-40.2s40.2,18,40.2,40.2C91.5,73.5,73.5,91.5,51.3,91.5z"/>
	<path d="M52.8,66.1h-6.9c-1.5,0-2.7,1.2-2.7,2.7v6.8c0,1.5,1.2,2.7,2.7,2.7h6.9c1.5,0,2.7-1.2,2.7-2.7v-6.8
		C55.5,67.3,54.3,66.1,52.8,66.1z"/>
	<path d="M50.9,24.3c-7.1,0-12.5,2.5-16.7,6.3c-1.1,1-1.2,2.7-0.2,3.8l3.5,3.8c0.9,1,2.6,1.2,3.6,0.3c3-2.4,6.1-3.6,9.6-3.6
		c4.4,0,7,2,7,5.5c0,4.1-3.7,6.6-13.3,7L44,47.8l1.4,10c0.2,1.3,1.3,2.3,2.7,2.3h3.2c1.3,0,2.4-0.9,2.7-2.2l0.1-0.7
		c0.2-1,1-1.9,2-2.1c7.5-1.9,13.3-5.9,13.3-15C69.3,29.9,61.9,24.3,50.9,24.3z"/>
</g>
</svg>
