<?xml version="1.0" encoding="utf-8"?>
<!-- Generator: Adobe Illustrator 18.0.0, SVG Export Plug-In . SVG Version: 6.00 Build 0)  -->
<!DOCTYPE svg PUBLIC "-//W3C//DTD SVG 1.1//EN" "http://www.w3.org/Graphics/SVG/1.1/DTD/svg11.dtd">
<svg version="1.1" id="Layer_1" xmlns="http://www.w3.org/2000/svg" xmlns:xlink="http://www.w3.org/1999/xlink" x="0px" y="0px"
	 viewBox="0 0 61.4 69.8" enable-background="new 0 0 61.4 69.8" xml:space="preserve">
<g>
	<path d="M59.3,7.8c0,0-4.8-1.7-10.3-4.1C43.1,1.3,37,0,30.7,0S18.3,1.3,12.5,3.8C7,6.1,2.2,7.8,2.2,7.8L0,8.6v2.3
		c0,25.1,7.9,39.6,14.5,47.4c7.4,8.7,14.9,11.2,15.2,11.3l0.9,0.3l1-0.3c0.3-0.1,7.9-2.3,15.3-10.9c6.6-7.7,14.5-22.2,14.5-47.8V8.6
		L59.3,7.8z M42.3,54.1c-4.7,5.6-9.5,8-11.5,8.9c-2-0.9-6.8-3.5-11.6-9.3C11.2,44.2,6.9,30.2,6.5,13.2c2-0.7,5.1-1.9,8.6-3.4
		c5-2.1,10.2-3.2,15.6-3.2s10.7,1.1,15.6,3.2c3.5,1.5,6.6,2.7,8.6,3.4C54.6,30.6,50.2,44.7,42.3,54.1z"/>
	<ellipse cx="30.9" cy="26.4" rx="3.5" ry="3.9"/>
	<path d="M34,30.4c-0.1-0.1-0.2-0.1-0.2,0c-0.8,0.7-1.8,1.1-2.8,1.1s-2.1-0.4-2.8-1.1c-0.1-0.1-0.2-0.1-0.2,0
		c-1.6,1.7-2.8,4.5-3.2,6.9c-0.1,0.7,0.4,1.4,1.1,1.4h10.4c0.7,0,1.2-0.7,1.1-1.4C36.8,34.9,35.6,32.1,34,30.4z"/>
	<ellipse cx="22.3" cy="27" rx="2.4" ry="2.8"/>
	<path d="M24.5,29.9c-0.1-0.1-0.2-0.1-0.2,0c-0.5,0.5-1.2,0.8-2,0.8c-0.7,0-1.4-0.3-2-0.8c-0.1-0.1-0.2-0.1-0.2,0
		c-1.1,1.2-2,3.2-2.2,4.9c-0.1,0.5,0.3,1,0.7,1h5.4c0.4-1.4,1-2.9,1.7-4C25.4,31,25,30.4,24.5,29.9z"/>
	<ellipse cx="39.1" cy="27" rx="2.4" ry="2.8"/>
	<path d="M41.3,29.9c-0.1-0.1-0.2-0.1-0.2,0c-0.5,0.5-1.2,0.8-2,0.8c-0.7,0-1.4-0.3-2-0.8c-0.1-0.1-0.2-0.1-0.2,0
		c-0.4,0.4-0.8,0.9-1.1,1.5c0.8,1.3,1.5,2.8,1.9,4.4h5c0.5,0,0.8-0.5,0.7-1C43.3,33.1,42.5,31.1,41.3,29.9z"/>
</g>
</svg>
