<?xml version="1.0" encoding="utf-8"?>
<!-- Generator: Adobe Illustrator 18.0.0, SVG Export Plug-In . SVG Version: 6.00 Build 0)  -->
<!DOCTYPE svg PUBLIC "-//W3C//DTD SVG 1.1//EN" "http://www.w3.org/Graphics/SVG/1.1/DTD/svg11.dtd">
<svg version="1.1" id="Layer_1" xmlns="http://www.w3.org/2000/svg" xmlns:xlink="http://www.w3.org/1999/xlink" x="0px" y="0px"
	 viewBox="0 0 83.4 94.5" enable-background="new 0 0 83.4 94.5" xml:space="preserve">
<path d="M41.7,0c4.1,0.3,8.2,1.1,12.2,2.5c2,0.7,3.9,1.5,5.8,2.5c0.5,0.2,0.9,0.5,1.4,0.7c0.2,0.1,0.5,0.3,0.7,0.4l0.7,0.4
	c0.4,0.3,0.9,0.5,1.3,0.8c0.4,0.3,0.9,0.6,1.3,0.9c1.7,1.2,3.4,2.5,5,4c1.6,1.5,3,3.1,4.4,4.8c0.7,0.9,1.3,1.7,1.9,2.6
	c0.3,0.4,0.6,0.9,0.9,1.4l0.2,0.3l0.2,0.4l0.4,0.7c0.3,0.5,0.5,1,0.8,1.5c0.2,0.5,0.5,1,0.7,1.5c0.5,1,0.9,2,1.2,3
	c0.7,2.1,1.3,4.2,1.8,6.3c0.2,1.1,0.4,2.2,0.5,3.2c0.1,0.5,0.1,1.1,0.2,1.6l0.1,0.8l0,0.2l0,0.1l0,0.3l0,0.4c0,0.3,0,0.5,0,0.8
	l0,0.9c0,0.6,0,1.1-0.1,1.7c-0.1,1.1-0.2,2.2-0.3,3.3c-0.3,2.2-0.8,4.4-1.5,6.5c-0.3,1.1-0.7,2.1-1.1,3.1c-0.2,0.5-0.4,1-0.6,1.5
	l-0.2,0.4l0,0.1L79.4,60l-0.1,0.2L79,60.9c-0.2,0.4-0.5,1-0.8,1.5c-0.3,0.5-0.6,1-0.9,1.5c-0.6,1-1.2,1.9-1.9,2.8
	c-2.7,3.7-6,6.9-10,9.4c-0.5,0.3-1,0.6-1.5,0.9c-0.5,0.3-1,0.5-1.5,0.8c-0.5,0.3-1,0.5-1.6,0.7l-0.2,0.1l-0.3,0.1L60,78.9l-0.7,0.3
	c-0.6,0.2-1.1,0.4-1.7,0.6c-0.6,0.2-1.1,0.4-1.7,0.5c-0.6,0.1-1.1,0.3-1.7,0.4l-0.9,0.2L52.5,81c-2.3,0.4-4.7,0.6-7.1,0.5
	c-2.4-0.1-4.7-0.4-7-1c-0.6-0.1-1.1-0.3-1.7-0.5L36.3,80l-0.1,0c-0.1-0.1,0.2,0.1-0.3-0.1l-0.1,0l-0.2-0.1l-0.7-0.3
	c-0.4-0.2-1.1-0.4-1.6-0.7c-0.6-0.3-1.1-0.5-1.6-0.8c-2.1-1.1-4.2-2.4-6-4c-1.9-1.6-3.5-3.4-5-5.5c-1.4-2.1-2.5-4.3-3.4-6.6
	l-0.2-0.4L17,60.9L16.7,60l-0.1-0.4l0-0.1c0,0.1,0-0.2,0-0.2l0,0l0-0.2l-0.2-0.8l0-0.2l0-0.2l-0.1-0.5c-0.1-0.3-0.1-0.7-0.2-1
	c-0.1-0.6-0.2-1.3-0.2-1.9l-0.1-1l0-1c0-0.6,0.1-1.3,0.1-1.9c0.1-1.3,0.3-2.6,0.7-3.8c0.3-1.3,0.7-2.5,1.2-3.7
	c0.5-1.2,1.1-2.3,1.8-3.4c0.7-1.1,1.4-2.1,2.2-3.1l0.1-0.1l0.1-0.2l0.1-0.1l0.3-0.3l0.4-0.4c0.1-0.1,0.3-0.3,0.4-0.4
	c0.5-0.5,1.1-1,1.6-1.4c2.2-1.7,4.9-2.9,7.6-3.5c2.8-0.6,5.7-0.6,8.6,0.3c1.4,0.4,2.8,1,4.1,1.8c0.3,0.2,0.6,0.4,0.9,0.6l0.5,0.3
	l0.4,0.3c0.3,0.2,0.6,0.5,0.8,0.7l0.2,0.2c0.4,0.4,0.1,0.1,0.2,0.2l0,0l0.1,0.1l0.1,0.1l0,0l0.1,0.1l0.1,0.2l0.3,0.3l0.1,0.2
	l0.1,0.1c0.1,0.2,0.3,0.4,0.4,0.6c0.3,0.4,0.5,0.8,0.7,1.2c0.4,0.8,0.7,1.7,0.9,2.6c0.4,1.7,0.4,3.4,0.3,4.9l0,0.3l0,0.2
	c-0.1,0.4-0.2,0.7-0.3,1c-0.1,0.4-0.3,0.7-0.4,1.1c-0.2,0.3-0.4,0.7-0.6,1c-0.2,0.3-0.5,0.6-0.7,0.9c-0.3,0.3-0.5,0.6-0.8,0.8
	c-0.3,0.2-0.6,0.5-0.9,0.7c-0.3,0.2-0.6,0.4-0.9,0.6c-0.3,0.1-0.6,0.3-0.9,0.4c-0.3,0.1-0.6,0.2-0.9,0.3c-0.3,0.1-0.6,0.2-0.9,0.2
	c-0.3,0-0.6,0.1-0.9,0.1c-0.3,0-0.6,0-0.9,0c-0.3,0-0.6,0-0.9,0c-0.3,0-0.6-0.1-0.9-0.1c-0.3-0.1-0.6-0.1-0.9-0.2
	c-0.3-0.1-0.6-0.2-0.8-0.2l2.9,0.1c0,0,0,0,0.1,0c0,0,0,0,0,0c0,0,0,0,0,0c0,0,0.1,0,0.1,0c0,0,0.1,0,0.1-0.1
	c0.1-0.1,0.2-0.2,0.3-0.3c0,0,0,0,0,0c0,0,0,0,0,0c0,0,0,0,0,0c0,0,0,0,0,0c0,0,0,0,0,0c0,0,0,0,0,0c0,0,0,0,0,0c0,0,0,0,0,0
	c0,0.1,0,0.1,0,0.2c0,0,0,0.1,0,0.1c0,0,0,0,0,0l0,0c0,0-0.2-0.4-0.1-0.2l0,0.1l0.2,0.3l0.2,0.3l0,0c0,0,0,0,0,0l0,0c0,0,0,0,0,0
	c0,0,0,0,0,0c0,0,0,0,0.1,0.1c0.1,0.1,0.1,0.2,0.2,0.2c0.1,0.1,0.2,0.1,0.2,0.2c0.3,0.3,0.7,0.5,1.2,0.7c0.1,0,0.2,0.1,0.4,0.1
	c0.1,0,0.3,0.1,0.4,0.1c0.1,0,0.3,0,0.4,0.1c0.1,0,0.3,0,0.5,0.1c1.3,0.1,2.8,0,4.2-0.5c0.1-0.1,0.2-0.1,0.3-0.1l0.1,0
	c0,0,0.1,0,0.1,0l0.2-0.1c0.3-0.1,0.6-0.3,0.9-0.5c0.6-0.4,1.1-0.8,1.6-1.3c0.5-0.5,1-1.1,1.4-1.7c0.4-0.6,0.8-1.3,1.2-2
	c0.3-0.7,0.7-1.5,0.9-2.3l0-0.1l0-0.1l0,0c-0.1,0.5,0,0.1-0.1,0.2l0.1-0.4l0.1-0.4l0-0.2l0-0.1l0.1-0.5l0.1-0.6
	c0.1-0.8,0.2-1.6,0.2-2.4c0-0.8-0.1-1.6-0.2-2.3c-0.3-1.5-0.8-3.1-1.6-4.6l-0.3-0.6l0,0c0.1,0.1,0,0,0,0l0-0.1l-0.1-0.2L55.3,33
	l-0.2-0.3l0-0.1l0-0.1l-0.1-0.1l-0.3-0.5c-0.5-0.7-1-1.4-1.6-2c-0.3-0.3-0.6-0.6-0.9-1l-0.5-0.5c-0.2-0.2-0.3-0.3-0.5-0.4
	c-0.6-0.6-1.3-1.1-2-1.7c-1.4-1-3-1.9-4.7-2.7l-0.3-0.1l-0.2-0.1l-0.1,0c0.5,0.2,0.1,0,0.2,0.1l0,0l-0.7-0.3l-0.6-0.2
	c-0.2-0.1-0.4-0.1-0.6-0.2c-0.8-0.2-1.7-0.4-2.6-0.6c-1.8-0.3-3.6-0.4-5.4-0.3c-0.5,0-0.9,0-1.4,0.1l-0.4,0l-0.2,0l-0.1,0l0,0
	c0.7-0.1,0.2,0,0.3,0l-0.8,0.1l-0.4,0.1c-0.1,0-0.3,0-0.4,0.1l-0.6,0.1c-0.4,0.1-0.9,0.2-1.3,0.3c-1.8,0.5-3.5,1.1-5.2,1.9
	c-1.7,0.8-3.2,1.8-4.7,2.9c-1.5,1.1-2.9,2.4-4.2,3.7l-0.2,0.3l-0.1,0.1l0,0c-0.1,0.2,0.1-0.2,0.1-0.1l-0.1,0.2l-0.5,0.6
	c-0.2,0.2-0.3,0.4-0.5,0.6L13,33.5L12.6,34l-0.4,0.6l-0.4,0.6c-0.1,0.2-0.3,0.4-0.4,0.6c-1,1.6-1.9,3.3-2.7,5.1
	C7.2,44.4,6.3,48.2,6,52.1c0,0.5-0.1,1-0.1,1.5l0,0.2l0,0.1l0,0c0,0.2,0-0.2,0-0.1l0,0.4l0,0.8c0,0.9,0.1,2,0.2,2.9
	c0.2,2,0.5,3.9,1,5.8c0.5,1.9,1.1,3.8,1.9,5.6c0.2,0.5,0.4,0.9,0.6,1.4c0.2,0.5,0.5,0.9,0.7,1.4c0.2,0.4,0.4,0.9,0.7,1.3
	c0.2,0.4,0.5,0.9,0.7,1.3c2,3.4,4.7,6.5,7.8,9.2c1.5,1.3,3.2,2.7,4.9,3.8c1.7,1.2,3.5,2.2,5.4,3c3.7,1.8,7.8,2.9,11.9,3.8
	c-4.2-0.3-8.4-1-12.5-2.4c-2-0.7-4-1.5-5.9-2.6l-0.7-0.4L22.1,89l-0.3-0.2l-0.7-0.4L21,88.3l-0.2-0.1l-0.3-0.2
	c-0.5-0.3-0.9-0.6-1.4-0.9c-0.5-0.3-0.9-0.6-1.3-0.9c-3.5-2.5-6.8-5.6-9.4-9.2c-0.3-0.4-0.6-0.9-1-1.4c-0.3-0.5-0.6-1-0.9-1.4
	c-0.3-0.5-0.5-0.9-0.8-1.4c-0.3-0.5-0.6-1-0.8-1.5c-1.1-2-1.9-4-2.7-6.2C1.5,63,1,60.8,0.6,58.6c-0.2-1.1-0.3-2.2-0.4-3.4l-0.1-0.8
	l0-0.4l0-0.3l0-0.1l0-0.2c0-0.6,0-1.1,0-1.7c0-0.6,0-1.1,0.1-1.7l0.1-1.7l0.2-1.7c0.1-0.6,0.2-1.1,0.3-1.7c0.4-2.2,1-4.5,1.8-6.6
	C4,34.1,6.2,30,9.2,26.3c3-3.5,6.7-6.6,10.8-8.8c2.1-1.1,4.3-2,6.5-2.7c0.6-0.2,1.1-0.3,1.7-0.5l0.9-0.2c0.2,0,0.3-0.1,0.4-0.1
	l0.4-0.1l0.8-0.2c0.2,0-0.3,0,0.4-0.1l0.1,0l0.1,0l0.2,0l0.4-0.1c0.6-0.1,1.2-0.1,1.7-0.2c1.2-0.1,2.4-0.1,3.5-0.1
	c1.2,0,2.4,0.1,3.6,0.3c1.2,0.1,2.4,0.4,3.6,0.7c0.3,0.1,0.6,0.1,0.9,0.2l0.9,0.3l0.8,0.2l0,0c0.1,0.1-0.2-0.1,0.3,0.1l0.1,0
	l0.2,0.1l0.4,0.2c2.2,0.9,4.3,2,6.4,3.4c2,1.4,4,3,5.6,4.8c0.9,0.9,1.6,1.9,2.4,2.9l0.6,0.8l0.1,0.2l0.1,0.1l0.1,0.1l0.2,0.3
	l0.2,0.3l0.1,0.2l0.1,0.1l0.1,0.2l0.5,0.8c1.2,2.2,2.2,4.7,2.7,7.3c0.3,1.3,0.4,2.6,0.5,3.9c0,1.3,0,2.6-0.2,3.9l-0.1,1l-0.2,1
	l0,0.3l0,0.2L67,47.6l-0.1,0.4c0,0.1,0.1-0.2-0.1,0.3l0,0.1l0,0.1l-0.1,0.2c-0.4,1.2-0.8,2.5-1.4,3.6c-0.5,1.2-1.2,2.3-2,3.5
	c-0.8,1.1-1.6,2.2-2.6,3.2c-1,1-2.1,1.9-3.3,2.7c-0.6,0.4-1.2,0.8-1.9,1.1l-0.5,0.2C55.1,63,55,63,54.9,63l-0.3,0.1
	c-0.4,0.2-0.8,0.3-1.1,0.5c-2.5,0.9-5.3,1.3-8.3,1.1c-0.4,0-0.7-0.1-1.1-0.1c-0.4-0.1-0.7-0.1-1.1-0.2c-0.4-0.1-0.7-0.2-1.1-0.3
	c-0.4-0.1-0.7-0.2-1.1-0.4c-1.5-0.5-3-1.3-4.3-2.4c-0.3-0.3-0.6-0.6-0.9-0.8c-0.3-0.3-0.6-0.6-0.9-0.9c-0.1-0.1-0.3-0.4-0.4-0.6
	c-0.1-0.2-0.3-0.4-0.4-0.6l-0.2-0.3l-0.1-0.2c0,0,0,0,0-0.1l0,0l-0.2-0.3l-0.2-0.3l0-0.1c0.1,0.2-0.2-0.3-0.2-0.3l0-0.1l-0.2-0.3
	c-0.2-0.5-0.4-0.9-0.5-1.4C32,54,31.8,53,31.8,52l0-0.4l0-0.4c0-0.2,0-0.5,0.1-0.7c0.1-0.5,0.1-1,0.3-1.5c0.1-0.5,0.3-1,0.5-1.5
	c0.1-0.3,0.2-0.5,0.4-0.8c0.1-0.1,0.1-0.2,0.2-0.4l0.2-0.4c0.2-0.2,0.3-0.5,0.5-0.7c0.2-0.2,0.4-0.5,0.6-0.7
	c0.2-0.2,0.4-0.4,0.7-0.6c0.2-0.2,0.5-0.4,0.7-0.6c0.2-0.2,0.5-0.3,0.8-0.5c0.3-0.1,0.5-0.3,0.8-0.4c0.1-0.1,0.3-0.1,0.4-0.2
	l0.4-0.1c0.3-0.1,0.5-0.2,0.8-0.2l2.9,0.1c0,0,0,0,0,0c0,0,0,0,0.1,0c0,0,0,0,0,0c0,0,0,0,0,0c0,0,0,0,0,0c0,0,0,0,0,0c0,0,0,0,0,0
	c0,0,0,0-0.1,0c0,0-0.1,0-0.1,0c0,0-0.1,0-0.1,0.1c-0.1,0-0.1,0.1-0.2,0.1c-0.1,0-0.1,0.1-0.2,0.2c-0.1,0.1-0.1,0.1-0.2,0.2
	c-0.1,0.1-0.1,0.1-0.1,0.2c0,0.1-0.1,0.1-0.1,0.2c0,0,0,0.1,0,0.2l-0.1,0.4c0.1-0.6,0-1,0-1.3c0-0.1-0.1-0.2-0.1-0.3
	c0,0,0-0.1-0.1-0.1c0,0,0,0,0-0.1l0,0l0,0c0,0,0,0,0,0l0,0c0,0,0,0,0,0l0,0l-0.1-0.1l-0.1-0.1l0,0c0.1,0.1-0.2-0.2,0.2,0.2l-0.1-0.1
	c-0.1-0.1-0.2-0.2-0.3-0.3l-0.2-0.1L40,41.4c-0.1-0.1-0.2-0.2-0.4-0.2c-0.5-0.3-1-0.5-1.6-0.7c-1.1-0.3-2.4-0.4-3.6-0.1
	c-1.3,0.3-2.5,0.8-3.5,1.6c-0.3,0.2-0.5,0.4-0.7,0.6c-0.1,0.1-0.1,0.1-0.1,0.1L30,42.7L29.7,43l-0.1,0.1l0,0
	c-0.1,0.1,0.1-0.1,0.1-0.1l0,0.1c-0.5,0.6-1,1.2-1.4,1.9c-0.4,0.7-0.8,1.3-1.1,2c-0.3,0.7-0.6,1.4-0.8,2.2c-0.2,0.7-0.3,1.5-0.4,2.2
	c0,0.4-0.1,0.8-0.1,1.2l0,0.6l0,0.6c0,0.4,0.1,0.8,0.1,1.2c0,0.2,0.1,0.3,0.1,0.5l0,0.3c0,0,0,0.1,0,0.1l0,0.2l0.2,0.8l0,0.2l0,0
	c0,0-0.1-0.2,0-0.1l0,0.1l0.1,0.3l0.2,0.6l0.1,0.3l0.1,0.3c1,3.1,2.8,5.9,5.3,8.1c1.2,1.1,2.6,2.1,4.1,3c0.4,0.2,0.8,0.4,1.1,0.6
	c0.4,0.2,0.7,0.4,1.2,0.6l0.7,0.3l0.2,0.1l0.1,0c-0.5-0.2-0.1,0-0.2-0.1l0,0l0.3,0.1c0.4,0.1,0.8,0.3,1.3,0.4
	c1.7,0.5,3.4,0.8,5.2,0.9c1.7,0.1,3.5,0.1,5.3-0.2l0.7-0.1l0.7-0.1c0.4-0.1,0.9-0.2,1.3-0.3c0.4-0.1,0.9-0.2,1.3-0.3
	c0.4-0.1,0.8-0.2,1.2-0.4L57,71l0.4-0.1l0.1,0l0,0c0,0-0.2,0.1-0.1,0l0.2-0.1c0.4-0.2,0.8-0.3,1.2-0.5c0.4-0.2,0.8-0.4,1.2-0.6
	c0.4-0.2,0.8-0.4,1.2-0.6c3.1-1.8,5.9-4.2,8.3-7c0.6-0.7,1.1-1.5,1.7-2.2c0.3-0.4,0.5-0.8,0.8-1.2c0.2-0.4,0.5-0.7,0.7-1.2l0.4-0.7
	l0.1-0.2l0,0c0,0.1,0.1-0.2-0.1,0.1l0-0.1l0.2-0.3c0.2-0.4,0.4-0.9,0.6-1.3c0.4-0.9,0.8-1.7,1.1-2.6c0.7-1.8,1.2-3.6,1.6-5.4
	c0.2-0.9,0.4-1.9,0.5-2.8c0.1-0.5,0.1-0.9,0.2-1.4l0.1-0.7c0-0.2,0-0.5,0-0.8l0-0.4l0,0c0,0.1,0-0.2,0,0.1l0-0.1l0-0.2l0-0.7
	c0-0.5,0-1-0.1-1.4c-0.1-1-0.1-1.9-0.3-2.9c-0.2-1.9-0.6-3.8-1.1-5.7c-0.3-0.9-0.5-1.9-0.9-2.8c-0.2-0.5-0.3-0.9-0.5-1.4
	c-0.2-0.5-0.4-0.9-0.5-1.3l-0.3-0.7l-0.1-0.2l0-0.1l0,0c0-0.1,0,0.1,0,0l-0.2-0.3c-0.2-0.4-0.5-0.9-0.7-1.3c-0.5-0.9-1-1.7-1.5-2.5
	c-2.1-3.3-4.8-6.3-7.8-8.9c-0.4-0.3-0.8-0.6-1.1-1C61.8,9.3,61.4,9,61,8.6l-1.2-0.9c-0.4-0.3-0.8-0.6-1.2-0.8
	c-1.7-1.1-3.4-2.1-5.3-3C49.6,2.2,45.7,0.9,41.7,0z"/>
</svg>
